<?xml version="1.0" encoding="UTF-8" standalone="no"?>
<!DOCTYPE svg PUBLIC "-//W3C//DTD SVG 1.1//EN"
 "http://www.w3.org/Graphics/SVG/1.1/DTD/svg11.dtd">
<!-- Generated by graphviz version 2.49.1 (0)
 -->
<!-- Title: A digraph Pages: 1 -->
<svg width="188pt" height="116pt"
 viewBox="0.00 0.00 188.00 116.00" xmlns="http://www.w3.org/2000/svg" xmlns:xlink="http://www.w3.org/1999/xlink">
<g id="graph0" class="graph" transform="scale(1 1) rotate(0) translate(4 112)">
<title>A digraph</title>
<polygon fill="white" stroke="transparent" points="-4,4 -4,-112 184,-112 184,4 -4,4"/>
<!-- A -->
<g id="node1" class="node">
<title>A</title>
<polygon fill="none" stroke="black" points="90,-108 63,-90 90,-72 117,-90 90,-108"/>
<text text-anchor="middle" x="90" y="-86.3" font-family="Times,serif" font-size="14.00">A</text>
</g>
<!-- B -->
<g id="node2" class="node">
<title>B</title>
<polygon fill="none" stroke="black" points="54,-36 0,-36 0,0 54,0 54,-36"/>
<text text-anchor="middle" x="27" y="-14.3" font-family="Times,serif" font-size="14.00">B</text>
</g>
<!-- A&#45;&gt;B -->
<g id="edge1" class="edge">
<title>A&#45;&gt;B</title>
<path fill="none" stroke="grey" stroke-dasharray="5,2" d="M80.43,-78.37C72.13,-69.14 59.79,-55.44 49.07,-43.52"/>
<polygon fill="grey" stroke="grey" points="51.6,-41.1 42.31,-36.01 46.4,-45.78 51.6,-41.1"/>
</g>
<!-- C -->
<g id="node3" class="node">
<title>C</title>
<ellipse fill="none" stroke="black" cx="90" cy="-18" rx="18" ry="18"/>
<text text-anchor="middle" x="90" y="-14.3" font-family="Times,serif" font-size="14.00">C</text>
</g>
<!-- A&#45;&gt;C -->
<g id="edge2" class="edge">
<title>A&#45;&gt;C</title>
<path fill="none" stroke="black" d="M88,-71.7C88,-63.98 88,-54.71 88,-46.11"/>
<path fill="none" stroke="transparent" d="M90,-71.7C90,-63.98 90,-54.71 90,-46.11"/>
<path fill="none" stroke="black" d="M92,-71.7C92,-63.98 92,-54.71 92,-46.11"/>
<polygon fill="black" stroke="black" points="93.5,-46.1 90,-36.1 86.5,-46.1 93.5,-46.1"/>
</g>
<!-- D -->
<g id="node4" class="node">
<title>D</title>
<ellipse fill="none" stroke="black" cx="153" cy="-18" rx="27" ry="18"/>
<text text-anchor="middle" x="153" y="-14.3" font-family="Times,serif" font-size="14.00">D</text>
</g>
<!-- A&#45;&gt;D -->
<g id="edge3" class="edge">
<title>A&#45;&gt;D</title>
<path fill="none" stroke="black" stroke-width="5" d="M99.57,-78.37C110.24,-66.51 127.58,-47.25 139.59,-33.89"/>
</g>
</g>
</svg>
