<?xml version="1.0" encoding="UTF-8" standalone="no"?>
<svg xmlns="http://www.w3.org/2000/svg" width="540pt" height="266" shape-rendering="geometricPrecision" version="1.0">
  <title>Memory</title>
  <defs>
    <filter id="f2" x="0" y="0" width="200%" height="200%">
      <feOffset result="offOut" in="SourceGraphic" dx="5" dy="5"/>
      <feGaussianBlur result="blurOut" in="offOut" stdDeviation="3"/>
      <feBlend in="SourceGraphic" in2="blurOut" mode="normal"/>
    </filter>
  </defs>
  <g stroke-width="1" stroke-linecap="square" stroke-linejoin="round">
    <path stroke="gray" fill="gray" filter="url(#f2)" d="M170.0 35.0 Q175.0 35.0 175.0 42.0 L175.0 56.0 Q175.0 61.0 170.0 61.0 L90.0 61.0 L90.0 61.0 Q85.0 61.0 85.0 56.0 L85.0 42.0 L85.0 42.0 Q85.0 35.0 90.0 35.0 L170.0 35.0 z"/>
    <path stroke="gray" fill="gray" filter="url(#f2)" d="M170.0 205.0 Q175.0 205.0 175.0 210.0 L175.0 224.0 Q175.0 231.0 170.0 231.0 L90.0 231.0 L90.0 231.0 Q85.0 231.0 85.0 224.0 L85.0 210.0 L85.0 210.0 Q85.0 205.0 90.0 205.0 L170.0 205.0 z"/>
    <path stroke="gray" fill="gray" filter="url(#f2)" d="M170.0 65.0 Q175.0 65.0 175.0 70.0 L175.0 84.0 Q175.0 89.0 170.0 89.0 L90.0 89.0 L90.0 89.0 Q85.0 89.0 85.0 84.0 L85.0 70.0 L85.0 70.0 Q85.0 65.0 90.0 65.0 L170.0 65.0 z"/>
    <path stroke="gray" fill="gray" filter="url(#f2)" d="M90.0 121.0 Q85.0 121.0 85.0 126.0 L85.0 140.0 Q85.0 145.0 90.0 145.0 L170.0 145.0 L170.0 145.0 Q175.0 145.0 175.0 140.0 L175.0 126.0 L175.0 126.0 Q175.0 121.0 170.0 121.0 L90.0 121.0 z"/>
    <path stroke="gray" fill="gray" filter="url(#f2)" d="M170.0 149.0 Q175.0 149.0 175.0 154.0 L175.0 168.0 Q175.0 173.0 170.0 173.0 L90.0 173.0 L90.0 173.0 Q85.0 173.0 85.0 168.0 L85.0 154.0 L85.0 154.0 Q85.0 149.0 90.0 149.0 L170.0 149.0 z"/>
    <path stroke="#000000" stroke-width="1.000000" stroke-linecap="round" stroke-linejoin="round" fill="white" d="M170.0 35.0 Q175.0 35.0 175.0 42.0 L175.0 56.0 Q175.0 61.0 170.0 61.0 L90.0 61.0 L90.0 61.0 Q85.0 61.0 85.0 56.0 L85.0 42.0 L85.0 42.0 Q85.0 35.0 90.0 35.0 L170.0 35.0 z"/>
    <path stroke="#000000" stroke-width="1.000000" stroke-linecap="round" stroke-linejoin="round" fill="white" d="M170.0 205.0 Q175.0 205.0 175.0 210.0 L175.0 224.0 Q175.0 231.0 170.0 231.0 L90.0 231.0 L90.0 231.0 Q85.0 231.0 85.0 224.0 L85.0 210.0 L85.0 210.0 Q85.0 205.0 90.0 205.0 L170.0 205.0 z"/>
    <path stroke="#000000" stroke-width="1.000000" stroke-linecap="round" stroke-linejoin="round" fill="white" d="M170.0 65.0 Q175.0 65.0 175.0 70.0 L175.0 84.0 Q175.0 89.0 170.0 89.0 L90.0 89.0 L90.0 89.0 Q85.0 89.0 85.0 84.0 L85.0 70.0 L85.0 70.0 Q85.0 65.0 90.0 65.0 L170.0 65.0 z"/>
    <path stroke="#000000" stroke-width="1.000000" stroke-dasharray="5.000000,5.000000" stroke-miterlimit="0" stroke-linecap="butt" stroke-linejoin="round" fill="white" d="M85.0 112.0 Q85.0 117.0 90.0 117.0 L170.0 117.0 Q175.0 117.0 175.0 112.0 L175.0 98.0 L175.0 98.0 Q175.0 93.0 170.0 93.0 L90.0 93.0 L90.0 93.0 Q85.0 93.0 85.0 98.0 L85.0 112.0 z"/>
    <path stroke="#000000" stroke-width="1.000000" stroke-linecap="round" stroke-linejoin="round" fill="white" d="M90.0 121.0 Q85.0 121.0 85.0 126.0 L85.0 140.0 Q85.0 145.0 90.0 145.0 L170.0 145.0 L170.0 145.0 Q175.0 145.0 175.0 140.0 L175.0 126.0 L175.0 126.0 Q175.0 121.0 170.0 121.0 L90.0 121.0 z"/>
    <path stroke="#000000" stroke-width="1.000000" stroke-linecap="round" stroke-linejoin="round" fill="white" d="M170.0 149.0 Q175.0 149.0 175.0 154.0 L175.0 168.0 Q175.0 173.0 170.0 173.0 L90.0 173.0 L90.0 173.0 Q85.0 173.0 85.0 168.0 L85.0 154.0 L85.0 154.0 Q85.0 149.0 90.0 149.0 L170.0 149.0 z"/>
    <path stroke="#000000" stroke-width="1.000000" stroke-dasharray="5.000000,5.000000" stroke-miterlimit="0" stroke-linecap="butt" stroke-linejoin="round" fill="white" d="M170.0 177.0 Q175.0 177.0 175.0 182.0 L175.0 196.0 Q175.0 201.0 170.0 201.0 L90.0 201.0 L90.0 201.0 Q85.0 201.0 85.0 196.0 L85.0 182.0 L85.0 182.0 Q85.0 177.0 90.0 177.0 L170.0 177.0 z"/>
    <path stroke="#000000" stroke-width="1.000000" stroke-linecap="round" stroke-linejoin="round" fill="none" d="M205.0 231.0 L220.0 231.0 Q225.0 231.0 225.0 224.0 L225.0 154.0 L225.0 154.0 Q225.0 147.0 220.0 147.0 L205.0 147.0 L205.0 147.0 "/>
    <path stroke="none" stroke-width="1.000000" stroke-linecap="round" stroke-linejoin="round" fill="#000000" d="M210.0 42.0 L200.0 49.0 L210.0 56.0 z"/>
    <path stroke="none" stroke-width="1.000000" stroke-linecap="round" stroke-linejoin="round" fill="#000000" d="M210.0 70.0 L200.0 77.0 L210.0 84.0 z"/>
    <path stroke="none" stroke-width="1.000000" stroke-linecap="round" stroke-linejoin="round" fill="#000000" d="M210.0 126.0 L200.0 133.0 L210.0 140.0 z"/>
    <path stroke="none" stroke-width="1.000000" stroke-linecap="round" stroke-linejoin="round" fill="#000000" d="M210.0 140.0 L200.0 147.0 L210.0 154.0 z"/>
    <path stroke="none" stroke-width="1.000000" stroke-linecap="round" stroke-linejoin="round" fill="#000000" d="M210.0 224.0 L200.0 231.0 L210.0 238.0 z"/>
    <path stroke="#000000" stroke-width="1.000000" stroke-linecap="round" stroke-linejoin="round" fill="none" d="M205.0 133.0 L219.0 133.0 "/>
    <path stroke="#000000" stroke-width="1.000000" stroke-linecap="round" stroke-linejoin="round" fill="none" d="M205.0 77.0 L219.0 77.0 "/>
    <path stroke="#000000" stroke-width="1.000000" stroke-linecap="round" stroke-linejoin="round" fill="none" d="M205.0 49.0 L219.0 49.0 "/>
    <text x="52" y="84" font-family="Courier" font-size="19" stroke="none" fill="#000000"><![CDATA[1 ]]></text>
    <text x="123" y="196" font-family="Courier" font-size="19" stroke="none" fill="#000000"><![CDATA[.....]]></text>
    <text x="52" y="56" font-family="Courier" font-size="19" stroke="none" fill="#000000"><![CDATA[0 ]]></text>
    <text x="123" y="112" font-family="Courier" font-size="19" stroke="none" fill="#000000"><![CDATA[.....]]></text>
    <text x="42" y="224" font-family="Courier" font-size="19" stroke="none" fill="#000000"><![CDATA[n ]]></text>
    <text x="231" y="139" font-family="Courier" font-size="17" stroke="none" fill="#000000"><![CDATA[end]]></text>
    <text x="240" y="182" font-family="Courier" font-size="19" stroke="none" fill="#000000"><![CDATA[rest of the]]></text>
    <text x="240" y="196" font-family="Courier" font-size="18" stroke="none" fill="#000000"><![CDATA[allocated memory]]></text>
    <text x="232" y="84" font-family="Courier" font-size="19" stroke="none" fill="#000000"><![CDATA[q ]]></text>
    <text x="235" y="56" font-family="Courier" font-size="19" stroke="none" fill="#000000"><![CDATA[start]]></text>
    <text x="269" y="84" font-family="Courier" font-size="19" stroke="none" fill="#000000"><![CDATA[scans from start to end]]></text>
  </g>
</svg>
